<svg xmlns="http://www.w3.org/2000/svg" width="600" height="400" viewBox="0 0 600 400" version="1.1"><path d="M 263 75.500 L 263 86 271 86 L 279 86 279 160.500 L 279 235 264 235 L 249 235 249 178.546 L 249 122.091 255.750 121.796 L 262.500 121.500 262.785 111.250 L 263.070 101 228.035 101 L 193 101 193 111.500 L 193 122 200.500 122 L 208 122 208 187.096 L 208 252.192 220.750 265.556 L 233.500 278.919 256.250 278.960 L 279 279 279 294 L 279 309 276.250 309.085 C 274.738 309.132, 271.137 309.100, 268.250 309.013 L 263 308.855 263 322.427 L 263 336 300 336 L 337 336 337 322.500 L 337 309 329.500 309 L 322 309 322 294 L 322 279 344.015 279 L 366.029 279 378.979 265.750 L 391.928 252.500 391.964 187.250 L 392 122 399.500 122 L 407 122 407 111.500 L 407 101 371.965 101 L 336.930 101 337.215 111.250 L 337.500 121.500 344.250 121.796 L 351 122.091 351 178.546 L 351 235 336.500 235 L 322 235 322 160.500 L 322 86 329.500 86 L 337 86 337 75.500 L 337 65 300 65 L 263 65 263 75.500" stroke="none" fill="#9c0404" fill-rule="evenodd"/><path d="M 0 200.002 L 0 400.003 300.250 399.752 L 600.500 399.500 600.752 199.750 L 601.005 0 300.502 0 L 0 0 0 200.002 M 0.490 200.500 C 0.490 310.500, 0.607 355.352, 0.750 300.170 C 0.893 244.989, 0.893 154.989, 0.750 100.170 C 0.607 45.352, 0.490 90.500, 0.490 200.500 M 263 75.500 L 263 86 271 86 L 279 86 279 160.500 L 279 235 264 235 L 249 235 249 178.546 L 249 122.091 255.750 121.796 L 262.500 121.500 262.785 111.250 L 263.070 101 228.035 101 L 193 101 193 111.500 L 193 122 200.500 122 L 208 122 208 187.096 L 208 252.192 220.750 265.556 L 233.500 278.919 256.250 278.960 L 279 279 279 294 L 279 309 276.250 309.085 C 274.738 309.132, 271.137 309.100, 268.250 309.013 L 263 308.855 263 322.427 L 263 336 300 336 L 337 336 337 322.500 L 337 309 329.500 309 L 322 309 322 294 L 322 279 344.015 279 L 366.029 279 378.979 265.750 L 391.928 252.500 391.964 187.250 L 392 122 399.500 122 L 407 122 407 111.500 L 407 101 371.965 101 L 336.930 101 337.215 111.250 L 337.500 121.500 344.250 121.796 L 351 122.091 351 178.546 L 351 235 336.500 235 L 322 235 322 160.500 L 322 86 329.500 86 L 337 86 337 75.500 L 337 65 300 65 L 263 65 263 75.500" stroke="none" fill="#fbfbfb" fill-rule="evenodd"/></svg>